<svg xmlns="http://www.w3.org/2000/svg" width="51.906" height="52.005" viewBox="0 0 51.906 52.005">
  <path id="Icon_feather-phone" data-name="Icon feather-phone" d="M52.07,39.686v7.377a4.918,4.918,0,0,1-5.36,4.918,48.661,48.661,0,0,1-21.22-7.549A47.948,47.948,0,0,1,10.736,29.679,48.661,48.661,0,0,1,3.188,8.36,4.918,4.918,0,0,1,8.081,3h7.377a4.918,4.918,0,0,1,4.918,4.229A31.571,31.571,0,0,0,22.1,14.139a4.918,4.918,0,0,1-1.106,5.188L17.867,22.45A39.342,39.342,0,0,0,32.62,37.2l3.123-3.123a4.918,4.918,0,0,1,5.188-1.106,31.571,31.571,0,0,0,6.909,1.721,4.918,4.918,0,0,1,4.229,4.991Z" transform="translate(-1.666 -1.5)" fill="none" stroke="#14a29d" stroke-linecap="round" stroke-linejoin="round" stroke-width="3"/>
</svg>
