<svg xmlns="http://www.w3.org/2000/svg" width="234.162" height="228.333" viewBox="0 0 234.162 228.333">
  <path id="Path_19593" data-name="Path 19593" d="M46.4,202.451V127.936H79.927c14.217,2.535,28.415,10.253,42.631,19.191h26.032c11.777.705,17.971,12.654,6.5,20.506-9.128,6.708-21.173,6.308-33.522,5.2-8.519-.419-8.881,11.015,0,11.053,3.087.248,6.441-.476,9.357-.476,15.417-.019,28.091-2.973,35.866-15.132l3.888-9.109L209.4,139.981c19.381-6.384,33.141,13.893,18.867,28a507.466,507.466,0,0,1-86.235,50.769c-21.363,13-42.746,12.559-64.109,0L46.4,202.451ZM145.351,21.367C155.318,11,162.293,2,177.634.252c28.815-3.316,55.3,26.185,40.764,55.228-2.725,5.431-7.28,11.53-12.73,17.8v-.762h-37.3l-1.315,1.372-5.946,6.156L148.819,56.452l-4.078-7.833-3.907,7.928L129.7,79.13,118.671,63.122,114.783,57.5l-3.6,5.813-5.165,8.366h-22.7C75.6,61.064,70.169,49.61,69.731,37.242,68.931,14.6,86.787.118,107.331.385c18.352.229,26.071,9.357,38.02,20.982Zm52.827,60.126c-.553.591-1.124,1.163-1.677,1.753-16.427,17.018-34.246,33.56-51.131,50.312-17.685-17.018-39.125-34.97-54.828-52.922H110.99l1.315-2.134,2.878-4.669,11.473,16.656,4.307,6.27,3.354-6.823,10.577-21.5,11.053,21.249,2.859,5.489,4.307-4.459,8.957-9.224h26.109ZM0,120.771H36.3v89.17H0v-89.17Z" transform="translate(0 0.004)" fill="#14a29d" fill-rule="evenodd"/>
</svg>
