<svg xmlns="http://www.w3.org/2000/svg" width="19.399" height="19.394" viewBox="0 0 19.399 19.394">
  <path id="Icon_awesome-instagram" data-name="Icon awesome-instagram" d="M9.7,6.962a4.972,4.972,0,1,0,4.972,4.972A4.965,4.965,0,0,0,9.7,6.962Zm0,8.205a3.233,3.233,0,1,1,3.233-3.233A3.239,3.239,0,0,1,9.7,15.168Zm6.336-8.409a1.16,1.16,0,1,1-1.16-1.16A1.157,1.157,0,0,1,16.032,6.759Zm3.293,1.177a5.74,5.74,0,0,0-1.567-4.064,5.777,5.777,0,0,0-4.064-1.567c-1.6-.091-6.4-.091-8,0A5.769,5.769,0,0,0,1.629,3.868,5.758,5.758,0,0,0,.063,7.932c-.091,1.6-.091,6.4,0,8A5.74,5.74,0,0,0,1.629,20a5.785,5.785,0,0,0,4.064,1.567c1.6.091,6.4.091,8,0A5.74,5.74,0,0,0,17.758,20a5.777,5.777,0,0,0,1.567-4.064c.091-1.6.091-6.4,0-8Zm-2.069,9.715A3.273,3.273,0,0,1,15.413,19.5c-1.277.506-4.306.389-5.717.389S5.252,20,3.979,19.5a3.273,3.273,0,0,1-1.844-1.844c-.506-1.277-.389-4.306-.389-5.717s-.113-4.444.389-5.717A3.273,3.273,0,0,1,3.979,4.374c1.277-.506,4.306-.389,5.717-.389s4.444-.113,5.717.389a3.273,3.273,0,0,1,1.844,1.844c.506,1.277.389,4.306.389,5.717S17.763,16.379,17.256,17.652Z" transform="translate(0.005 -2.238)" fill="#fff"/>
</svg>
