<svg xmlns="http://www.w3.org/2000/svg" width="17.58" height="19.181" viewBox="0 0 17.58 19.181">
  <g id="Icon_ionic-logo-android" data-name="Icon ionic-logo-android" transform="translate(-5.625 -4.497)">
    <g id="Group_60" data-name="Group 60" transform="translate(5.625 10.093)">
      <path id="Path_38" data-name="Path 38" d="M10.125,17.316v4.475a.649.649,0,0,0,.569.7h1.428v2.6a1.2,1.2,0,0,0,2.4,0v-2.6h2.447v2.6a1.193,1.193,0,0,0,.44.929,1.116,1.116,0,0,0,.734.27h.025a1.2,1.2,0,0,0,1.2-1.2v-2.6h1.378a.644.644,0,0,0,.569-.694V13.5H10.125Z" transform="translate(-6.929 -12.701)" fill="#fff"/>
      <path id="Path_39" data-name="Path 39" d="M28.2,12.375a1.2,1.2,0,0,0-1.2,1.2v4.795a1.2,1.2,0,0,0,2.4,0V13.574A1.2,1.2,0,0,0,28.2,12.375Z" transform="translate(-11.817 -12.375)" fill="#fff"/>
      <path id="Path_40" data-name="Path 40" d="M6.824,12.375a1.2,1.2,0,0,0-1.2,1.2v4.795a1.2,1.2,0,0,0,2.4,0V13.574A1.2,1.2,0,0,0,6.824,12.375Z" transform="translate(-5.625 -12.375)" fill="#fff"/>
    </g>
    <path id="Path_41" data-name="Path 41" d="M18.476,5.753,19.4,4.659c.02-.025-.01-.08-.065-.125s-.12-.05-.135-.02l-.959,1.139a6.785,6.785,0,0,0-2.527-.44,6.843,6.843,0,0,0-2.537.425l-.949-1.119c-.02-.025-.08-.02-.135.02s-.085.09-.065.125l.914,1.079A5.062,5.062,0,0,0,10.125,10.1H21.293A5.033,5.033,0,0,0,18.476,5.753ZM13.261,8.24a.664.664,0,1,1,.674-.664A.673.673,0,0,1,13.261,8.24Zm4.915,0a.664.664,0,1,1,.674-.664A.673.673,0,0,1,18.176,8.24Z" transform="translate(-1.304)" fill="#fff"/>
  </g>
</svg>
