<svg xmlns="http://www.w3.org/2000/svg" width="15.774" height="15.773" viewBox="0 0 15.774 15.773">
  <path id="Icon_awesome-linkedin-in" data-name="Icon awesome-linkedin-in" d="M3.531,15.774H.261V5.243h3.27ZM1.894,3.806A1.9,1.9,0,1,1,3.788,1.895,1.91,1.91,0,0,1,1.894,3.806ZM15.77,15.774H12.507V10.648c0-1.222-.025-2.789-1.7-2.789-1.7,0-1.961,1.327-1.961,2.7v5.215H5.579V5.243H8.716V6.68h.046a3.436,3.436,0,0,1,3.094-1.7c3.31,0,3.918,2.179,3.918,5.01v5.785Z" transform="translate(0 -0.001)" fill="#fff"/>
</svg>
