<svg xmlns="http://www.w3.org/2000/svg" width="15.815" height="18.82" viewBox="0 0 15.815 18.82">
  <path id="Icon_awesome-apple" data-name="Icon awesome-apple" d="M13.5,12.2a3.922,3.922,0,0,1,2.1-3.563,4.514,4.514,0,0,0-3.559-1.874c-1.492-.118-3.122.87-3.718.87-.63,0-2.076-.828-3.21-.828C2.773,6.838.281,8.67.281,12.4a10.472,10.472,0,0,0,.605,3.412c.538,1.542,2.479,5.323,4.5,5.26,1.059-.025,1.807-.752,3.185-.752,1.336,0,2.029.752,3.21.752,2.042-.029,3.8-3.466,4.311-5.013A4.165,4.165,0,0,1,13.5,12.2ZM11.126,5.3A3.957,3.957,0,0,0,12.134,2.25,4.455,4.455,0,0,0,9.281,3.716,4.019,4.019,0,0,0,8.206,6.737,3.529,3.529,0,0,0,11.126,5.3Z" transform="translate(-0.281 -2.25)" fill="#fff"/>
</svg>
