<svg xmlns="http://www.w3.org/2000/svg" width="74.11" height="44.149" viewBox="0 0 74.11 44.149">
  <g id="Attachment_1604593504" transform="translate(0.001 0)">
    <g id="Layer_2" data-name="Layer 2" transform="translate(-0.001 0)">
      <g id="Layer_1" data-name="Layer 1" transform="translate(0 0)">
        <path id="Path_11" data-name="Path 11" d="M148.43,67.92h0l-8.9-15.087a1.482,1.482,0,0,0-.938-.741c-.263-.066-1.167-.244-2.008-.413v1.745l.05-.1,8.973,15.2a1.476,1.476,0,0,0,1,.751l3.647.766C150.944,70.2,148.43,67.92,148.43,67.92Z" transform="translate(-93.858 -35.514)" fill="#14a29d"/>
        <path id="Path_12" data-name="Path 12" d="M46.034,96.5h-5c-8.757,0-9.091-9.091-19.453-9.091-8.156,0-5.439,9.091-15.462,9.091H2.362A2.389,2.389,0,0,1,.3,92.9L8.235,79.3a6.277,6.277,0,0,1,5.423-3.127H29.565a15.3,15.3,0,0,1,12.96,7.112L48.1,92.9a2.389,2.389,0,0,1-2.067,3.6Z" transform="translate(0.026 -52.346)" fill="#14a29d"/>
        <path id="Path_13" data-name="Path 13" d="M21.187,82.819c-6.568,9.054-5.942,8.15-6.568,9.054-1.6,2.3-3.415,4.622-8.485,4.622H2.381A2.389,2.389,0,0,1,.317,92.9L8.249,79.3a6.277,6.277,0,0,1,5.423-3.127H29.578a15.872,15.872,0,0,1,10.277,3.875C32.7,76.383,24.564,78.165,21.187,82.819Z" transform="translate(0.013 -52.346)" fill="#14a29d"/>
        <path id="Path_14" data-name="Path 14" d="M67.9,19.845H54.853A5.683,5.683,0,0,1,49.887,11.4L55.575,1.161a2.267,2.267,0,0,1,3.944-.041l9.632,16.541A1.451,1.451,0,0,1,67.9,19.845Z" transform="translate(-33.785 0.007)" fill="#14a29d"/>
        <path id="Path_15" data-name="Path 15" d="M63.906,11.693,55.665,4.534a2.437,2.437,0,0,0-.2-.162L49.867,14.414A5.6,5.6,0,0,0,49.3,18.48a15.037,15.037,0,0,1,15.5-5.251Z" transform="translate(-33.765 -3.003)" fill="#094543"/>
        <path id="Path_16" data-name="Path 16" d="M60.953,7.189a10.4,10.4,0,0,1,6.489,2.264L62.6,1.122a2.267,2.267,0,0,0-3.944.041l-5,9.007a10.414,10.414,0,0,1,7.3-2.98Z" transform="translate(-36.863 0.006)" fill="#14a29d"/>
        <g id="Group_24" data-name="Group 24" transform="translate(9.459 25.745)">
          <path id="Path_17" data-name="Path 17" d="M43.82,129.762l.213-.272Z" transform="translate(-39.567 -114.735)" fill="#32ba52"/>
          <path id="Path_18" data-name="Path 18" d="M42.14,131.725l.244-.275Z" transform="translate(-38.412 -116.082)" fill="#32ba52"/>
          <path id="Path_19" data-name="Path 19" d="M43,130.778c.081-.094.162-.191.241-.288A2.4,2.4,0,0,0,43,130.778Z" transform="translate(-39.003 -115.422)" fill="#32ba52"/>
          <path id="Path_20" data-name="Path 20" d="M44.56,128.783l.216-.291Z" transform="translate(-40.075 -114.05)" fill="#32ba52"/>
          <path id="Path_21" data-name="Path 21" d="M41.19,132.7q.141-.141.272-.281Q41.331,132.561,41.19,132.7Z" transform="translate(-37.759 -116.749)" fill="#32ba52"/>
          <path id="Path_22" data-name="Path 22" d="M45.38,127.74l.188-.26Z" transform="translate(-40.639 -113.354)" fill="#32ba52"/>
          <path id="Path_23" data-name="Path 23" d="M67.528,82.339C62.664,82.061,58.2,83.9,55.919,87.03c-3.127,4.285-4.607,6.339-5.389,7.412a6.685,6.685,0,0,1,5.8-2.815c.344,0,.679,0,1,.031l2.627-4.616A9.442,9.442,0,0,1,67.528,82.339Z" transform="translate(-44.178 -82.312)" fill="#094543"/>
          <path id="Path_24" data-name="Path 24" d="M46.06,126.728c.068-.094.134-.191.2-.288C46.194,126.537,46.129,126.634,46.06,126.728Z" transform="translate(-41.106 -112.639)" fill="#32ba52"/>
          <path id="Path_25" data-name="Path 25" d="M38.21,135.35c.109-.081.219-.166.313-.25C38.429,135.184,38.319,135.269,38.21,135.35Z" transform="translate(-35.711 -118.591)" fill="#32ba52"/>
          <path id="Path_26" data-name="Path 26" d="M31.73,138.942c.156-.053.313-.113.45-.172A3.721,3.721,0,0,1,31.73,138.942Z" transform="translate(-31.258 -121.113)" fill="#32ba52"/>
          <path id="Path_27" data-name="Path 27" d="M33.22,138.331l.419-.191Z" transform="translate(-32.282 -120.68)" fill="#32ba52"/>
          <path id="Path_28" data-name="Path 28" d="M30.22,139.48c.16-.047.313-.1.466-.15C30.536,139.383,30.38,139.433,30.22,139.48Z" transform="translate(-30.22 -121.498)" fill="#32ba52"/>
          <path id="Path_29" data-name="Path 29" d="M40.28,133.6c.1-.088.191-.178.281-.269C40.471,133.421,40.377,133.511,40.28,133.6Z" transform="translate(-37.134 -117.374)" fill="#32ba52"/>
          <path id="Path_30" data-name="Path 30" d="M39.24,134.516c.106-.088.206-.175.313-.266C39.446,134.341,39.346,134.428,39.24,134.516Z" transform="translate(-36.419 -118.007)" fill="#32ba52"/>
          <path id="Path_31" data-name="Path 31" d="M35.87,136.406a7.231,7.231,0,0,0,.716-.466A7.231,7.231,0,0,1,35.87,136.406Z" transform="translate(-34.103 -119.168)" fill="#32ba52"/>
          <path id="Path_32" data-name="Path 32" d="M34.56,137.673c.134-.068.266-.141.394-.213C34.826,137.532,34.7,137.6,34.56,137.673Z" transform="translate(-33.203 -120.213)" fill="#32ba52"/>
        </g>
        <path id="Path_33" data-name="Path 33" d="M190.379,68.74h-8.516a6.255,6.255,0,0,0-5.942,4.356l-1.4,6.549a15.6,15.6,0,0,0,.894,1.564,1.542,1.542,0,0,0,.819.56l.094.019a1.5,1.5,0,0,0,1.761-1.016l1.479-6.88a6.255,6.255,0,0,1,5.968-4.36h8.507Z" transform="translate(-119.932 -47.24)" fill="#14a29d"/>
        <path id="Path_34" data-name="Path 34" d="M175.043,95.14l-.313,1.479-.25,1.17a15.614,15.614,0,0,0,.894,1.564,1.542,1.542,0,0,0,.819.56C175.268,99.071,174.858,96.719,175.043,95.14Z" transform="translate(-119.905 -65.383)" fill="#094543"/>
        <path id="Path_35" data-name="Path 35" d="M179.79,110.32Z" transform="translate(-123.554 -75.816)" fill="#32ba52"/>
        <path id="Path_36" data-name="Path 36" d="M179.45,110.25Z" transform="translate(-123.32 -75.768)" fill="#32ba52"/>
        <path id="Path_37" data-name="Path 37" d="M178.33,110Z" transform="translate(-122.551 -75.596)" fill="#32ba52"/>
        <path id="Path_38" data-name="Path 38" d="M178.876,110.16h-.056l.131.025h0Z" transform="translate(-122.887 -75.706)" fill="#32ba52"/>
        <path id="Path_39" data-name="Path 39" d="M182.836,110.37Z" transform="translate(-125.756 -75.85)" fill="#32ba52" opacity="0.32"/>
        <path id="Path_40" data-name="Path 40" d="M185.88,107.19Z" transform="translate(-127.739 -73.665)" fill="#32ba52" opacity="0.32"/>
        <g id="Group_25" data-name="Group 25" transform="translate(42.722 16.171)">
          <path id="Path_41" data-name="Path 41" d="M138.9,52.234a1.436,1.436,0,0,0-.313-.122c-.263-.066-1.167-.244-2.008-.413v1.745l.05-.1.607,1.032a3.584,3.584,0,0,1,1.664-2.146Z" transform="translate(-136.58 -51.699)" fill="#094543"/>
        </g>
        <path id="Path_42" data-name="Path 42" d="M86.961,51.286a1.964,1.964,0,0,1,.494.066h0L87.3,51.28h0a1.41,1.41,0,0,0-.162-.063c-.488-.125-3.228-.625-3.578-.744a1.526,1.526,0,0,0-.457-.068,1.5,1.5,0,0,0-1.345.835l-1.592,3.186A3.1,3.1,0,0,1,77.4,56.134H61.72l3.647.763H81.041A3.084,3.084,0,0,0,83.8,55.189L85.151,52.5a1.961,1.961,0,0,1,1.811-1.21Z" transform="translate(-42.41 -34.64)" fill="#14a29d"/>
      </g>
    </g>
  </g>
</svg>
