<svg xmlns="http://www.w3.org/2000/svg" width="234.398" height="229" viewBox="0 0 234.398 229">
  <g id="daily-schedule" transform="translate(75 106)">
    <path id="Path_19594" data-name="Path 19594" d="M132.868,7.725c0-4.253,4.2-7.725,9.422-7.725s9.422,3.452,9.422,7.725v33.8c0,4.253-4.2,7.725-9.422,7.725s-9.422-3.452-9.422-7.725V7.725Zm41.409,101.053a59.852,59.852,0,1,1-22.984,4.54,59.955,59.955,0,0,1,22.984-4.54Zm-4.5,34.981a5.248,5.248,0,0,1,1.545-3.719h0a5.283,5.283,0,0,1,9.022,3.738v28.115l21.019,12.474.172.114a5.132,5.132,0,0,1,2.232,3.109,5.277,5.277,0,0,1-.534,3.929l-.038.057a.684.684,0,0,1-.134.191,5.193,5.193,0,0,1-3.09,2.213,5.277,5.277,0,0,1-3.929-.534l-23.5-13.9a5.437,5.437,0,0,1-2-1.888,5.169,5.169,0,0,1-.782-2.728h0l.019-31.167Zm39.559-9.937A49.188,49.188,0,1,0,220.112,149.9a49.5,49.5,0,0,0-10.777-16.079ZM25.654,109.407c-.534,0-1.011-2.346-1.011-5.226s.42-5.207,1.011-5.207H51.366c.534,0,1.011,2.346,1.011,5.207,0,2.88-.42,5.226-1.011,5.226Zm40.99,0c-.534,0-1.011-2.346-1.011-5.226s.42-5.207,1.011-5.207H92.355c.534,0,1.011,2.346,1.011,5.207,0,2.88-.42,5.226-1.011,5.226Zm40.99,0c-.534,0-1.011-2.346-1.011-5.226s.42-5.207,1.011-5.207h25.711c.534,0,1.011,2.327,1.011,5.188a77.65,77.65,0,0,0-7.42,5.245ZM25.711,139.315c-.534,0-1.011-2.346-1.011-5.226s.42-5.226,1.011-5.226H51.423c.534,0,1.011,2.346,1.011,5.226s-.42,5.226-1.011,5.226Zm40.99,0c-.534,0-1.011-2.346-1.011-5.226s.42-5.226,1.011-5.226H92.413c.534,0,1.011,2.346,1.011,5.226s-.42,5.226-1.011,5.226ZM25.769,169.242c-.534,0-1.011-2.346-1.011-5.226s.42-5.226,1.011-5.226H51.48c.534,0,1.011,2.346,1.011,5.226s-.42,5.226-1.011,5.226Zm40.99,0c-.534,0-1.011-2.346-1.011-5.226s.42-5.226,1.011-5.226H92.47c.534,0,1.011,2.346,1.011,5.226s-.42,5.226-1.011,5.226ZM48.238,7.725C48.238,3.471,52.434,0,57.66,0s9.422,3.452,9.422,7.725v33.8c0,4.253-4.215,7.725-9.422,7.725-5.226,0-9.422-3.452-9.422-7.725V7.725ZM10.376,73.892H189.822V34.981a4.694,4.694,0,0,0-1.392-3.357,4.8,4.8,0,0,0-3.357-1.392h-17.2a5.226,5.226,0,0,1,0-10.452h17.2A15.239,15.239,0,0,1,200.294,35V96.78a78.618,78.618,0,0,0-10.586-2.842V84.287H10.376V185.054a4.694,4.694,0,0,0,1.392,3.357,4.8,4.8,0,0,0,3.357,1.392H100.4a76.552,76.552,0,0,0,3.662,10.548H15.221a15.151,15.151,0,0,1-10.758-4.463A15.039,15.039,0,0,1,0,185.149V35.019A15.239,15.239,0,0,1,15.221,19.8H33.589a5.226,5.226,0,1,1,0,10.452H15.221a4.694,4.694,0,0,0-3.357,1.392A4.8,4.8,0,0,0,10.472,35V73.911h-.1Zm71.775-43.66a5.226,5.226,0,1,1,0-10.452H117.17a5.226,5.226,0,0,1,0,10.452Z" transform="translate(-75 -106)" fill="#14a29d"/>
  </g>
</svg>
