<svg id="user-network" xmlns="http://www.w3.org/2000/svg" width="234" height="178.676" viewBox="0 0 234 178.676">
  <path id="Path_19592" data-name="Path 19592" d="M187.093,2.019a18.245,18.245,0,1,1-9.808,33.633,2.87,2.87,0,0,1-.4.438L163.345,49.135a60.883,60.883,0,0,1,15.483,37.613h18.93a18.238,18.238,0,1,1,.286,7.408c-.1,0-.19.019-.286.019H178.733a60.81,60.81,0,0,1-15.959,36.965l14.341,13.331a3.975,3.975,0,0,1,.381.419,18.308,18.308,0,1,1-5.371,5.085l-.057-.057-14.645-13.6a61.024,61.024,0,0,1-80.082-.9l-14.779,14.4-.019.019a18.27,18.27,0,1,1-5.352-5.142.9.9,0,0,1,.19-.19L72.1,130.169A60.772,60.772,0,0,1,57.019,93.737l-20.759.209h-.114a18.259,18.259,0,1,1-.057-7.408h.1l20.8-.209A60.818,60.818,0,0,1,72.1,49.535l-15.483-14.8a2.928,2.928,0,0,1-.324-.362,18.051,18.051,0,0,1-8.513,2.095,18.231,18.231,0,1,1,14.245-6.837L77.34,44.259a61,61,0,0,1,80.73-.324l13.674-13.179a3.313,3.313,0,0,1,.267-.229,18.245,18.245,0,0,1,15.083-28.51ZM109.335,96.137l5.085,14.95,2.552-8.875-1.257-1.371a2.085,2.085,0,0,1-.381-2.171c.686-1.352,2.076-1.086,3.39-1.086,1.371,0,3.066-.267,3.5,1.466a2.236,2.236,0,0,1-.438,1.79l-1.257,1.371,2.552,8.875,4.609-14.95c3.314,2.99,13.16,3.58,16.816,5.637a9.6,9.6,0,0,1,3.047,2.571,12.292,12.292,0,0,1,2.266,6.666l.762,7.408a3.344,3.344,0,0,1-3.5,3.276H89.966c-2.209-.171-3.333-1.314-3.5-3.276l.762-7.408a12.237,12.237,0,0,1,2.266-6.666,9.6,9.6,0,0,1,3.047-2.571c3.657-2.057,13.484-2.647,16.8-5.637Zm-1.371-22.606a.773.773,0,0,1,.076.362.714.714,0,0,1-.019.19l.1.7a3.016,3.016,0,0,1-.7.057.862.862,0,0,1-.3.057,2.6,2.6,0,0,0-1.39.343.969.969,0,0,0-.343.4,1.3,1.3,0,0,0-.114.686,6.574,6.574,0,0,0,1.333,3.2l.019.019h0l2.838,4.514a24.584,24.584,0,0,0,3.79,4.99,7.634,7.634,0,0,0,5.332,2.152,7.9,7.9,0,0,0,5.656-2.247,24.246,24.246,0,0,0,3.9-5.332l3.2-5.256c.648-1.466.838-2.362.628-2.781-.133-.286-.7-.343-1.657-.267a.99.99,0,0,1-.762-.267.927.927,0,0,1-.229-.019l.038-.229a1.149,1.149,0,0,1-.114-.362,1,1,0,0,1,.343-.838l.667-3.371c-5.847-.076-9.846-1.086-14.588-4.114-1.562-.99-2.019-2.133-3.58-2.019a5.309,5.309,0,0,0-2.952,1.6,7.752,7.752,0,0,0-1.695,3.333l.533,4.495Zm24.206.019a2.311,2.311,0,0,1,1.485,1.2c.476.971.286,2.419-.609,4.475h0l-.057.114-3.238,5.332a27.223,27.223,0,0,1-4.228,5.732,9.612,9.612,0,0,1-6.97,2.761,9.505,9.505,0,0,1-6.647-2.666,25.859,25.859,0,0,1-4.133-5.371l-2.838-4.514a8.388,8.388,0,0,1-1.638-4.209,3.466,3.466,0,0,1,.286-1.562,2.973,2.973,0,0,1,1.028-1.2,3.167,3.167,0,0,1,.762-.381,73.31,73.31,0,0,1-.114-7.942,10.22,10.22,0,0,1,5.142-7.961,12.078,12.078,0,0,1,2.59-1.257c5.466-1.981,12.684-.9,16.569,3.295a10.986,10.986,0,0,1,2.78,6.97l-.171,7.18Zm23.577-21.616c-.114-.1-.209-.19-.3-.286-.057-.057-.1-.114-.152-.171a53.555,53.555,0,0,0-74.788.038,4.634,4.634,0,0,1-.381.476,3.958,3.958,0,0,1-.609.514,53.567,53.567,0,1,0,76.292-.552l-.057-.019Z" fill="#14a29d" fill-rule="evenodd"/>
</svg>
